<?xml version="1.0" encoding="UTF-8" standalone="no"?>
<!DOCTYPE svg PUBLIC "-//W3C//DTD SVG 1.1//EN"
 "http://www.w3.org/Graphics/SVG/1.1/DTD/svg11.dtd">
<!-- Generated by graphviz version 10.0.1 (20240210.2158)
 -->
<!-- Pages: 1 -->
<svg width="1114pt" height="821pt"
 viewBox="0.00 0.00 1113.50 821.00" xmlns="http://www.w3.org/2000/svg" xmlns:xlink="http://www.w3.org/1999/xlink">
<g id="graph0" class="graph" transform="scale(1 1) rotate(0) translate(4 817)">
<polygon fill="#ffffff" stroke="none" points="-4,4 -4,-817 1109.5,-817 1109.5,4 -4,4"/>
<!-- X1 -->
<g id="node1" class="node">
<title>X1</title>
<polygon fill="#ffffff" stroke="black" points="298.5,-781 0,-781 0,-684 298.5,-684 298.5,-781"/>
<polygon fill="none" stroke="black" points="0,-756.5 0,-781 298.5,-781 298.5,-756.5 0,-756.5"/>
<text text-anchor="start" x="140.25" y="-763.7" font-family="arial" font-size="14.00">X1</text>
<polygon fill="none" stroke="black" points="0,-732 0,-756.5 207.5,-756.5 207.5,-732 0,-732"/>
<text text-anchor="start" x="4" y="-739.2" font-family="arial" font-size="14.00">2&#45;pin JST XH 2.5mm connector</text>
<polygon fill="none" stroke="black" points="207.5,-732 207.5,-756.5 259,-756.5 259,-732 207.5,-732"/>
<text text-anchor="start" x="211.5" y="-739.2" font-family="arial" font-size="14.00">female</text>
<polygon fill="none" stroke="black" points="259,-732 259,-756.5 298.5,-756.5 298.5,-732 259,-732"/>
<text text-anchor="start" x="263" y="-739.2" font-family="arial" font-size="14.00">2&#45;pin</text>
<polygon fill="none" stroke="black" points="0,-708 0,-732 160.75,-732 160.75,-708 0,-708"/>
<text text-anchor="start" x="65" y="-714.7" font-family="arial" font-size="14.00">VCC</text>
<polygon fill="none" stroke="black" points="160.75,-708 160.75,-732 298.5,-732 298.5,-708 160.75,-708"/>
<text text-anchor="start" x="225.5" y="-714.7" font-family="arial" font-size="14.00">1</text>
<polygon fill="none" stroke="black" points="0,-684 0,-708 160.75,-708 160.75,-684 0,-684"/>
<text text-anchor="start" x="64.62" y="-690.7" font-family="arial" font-size="14.00">GND</text>
<polygon fill="none" stroke="black" points="160.75,-684 160.75,-708 298.5,-708 298.5,-684 160.75,-684"/>
<text text-anchor="start" x="225.5" y="-690.7" font-family="arial" font-size="14.00">2</text>
</g>
<!-- W1 -->
<g id="node7" class="node">
<title>W1</title>
<polygon fill="#ffffff" stroke="black" points="663,-813 442.5,-813 442.5,-672 663,-672 663,-813"/>
<polygon fill="none" stroke="black" points="442.5,-788.5 442.5,-813 663,-813 663,-788.5 442.5,-788.5"/>
<text text-anchor="start" x="541.5" y="-795.7" font-family="arial" font-size="14.00">W1</text>
<polygon fill="none" stroke="black" points="442.5,-764 442.5,-788.5 465.5,-788.5 465.5,-764 442.5,-764"/>
<text text-anchor="start" x="446.5" y="-771.2" font-family="arial" font-size="14.00">2x</text>
<polygon fill="none" stroke="black" points="465.5,-764 465.5,-788.5 602.5,-788.5 602.5,-764 465.5,-764"/>
<text text-anchor="start" x="469.5" y="-771.2" font-family="arial" font-size="14.00">22 AWG (0.34 mm²)</text>
<polygon fill="none" stroke="black" points="602.5,-764 602.5,-788.5 663,-788.5 663,-764 602.5,-764"/>
<text text-anchor="start" x="606.5" y="-771.2" font-family="arial" font-size="14.00">0.036 m</text>
<text text-anchor="start" x="477.21" y="-748.7" font-family="arial" font-size="14.00"> </text>
<text text-anchor="start" x="446.83" y="-728.7" font-family="arial" font-size="14.00">X1:1:VCC</text>
<text text-anchor="start" x="519.38" y="-728.7" font-family="arial" font-size="14.00"> &#160;&#160;&#160;&#160;1:RD &#160;&#160;&#160;</text>
<text text-anchor="start" x="594.17" y="-728.7" font-family="arial" font-size="14.00">X2:1:VCC</text>
<polygon fill="#000000" stroke="none" points="442.5,-722 442.5,-724 663,-724 663,-722 442.5,-722"/>
<polygon fill="#ff0000" stroke="none" points="442.5,-720 442.5,-722 663,-722 663,-720 442.5,-720"/>
<polygon fill="#000000" stroke="none" points="442.5,-718 442.5,-720 663,-720 663,-718 442.5,-718"/>
<text text-anchor="start" x="446.46" y="-702.7" font-family="arial" font-size="14.00">X1:2:GND</text>
<text text-anchor="start" x="520.12" y="-702.7" font-family="arial" font-size="14.00"> &#160;&#160;&#160;&#160;2:BK &#160;&#160;&#160;</text>
<text text-anchor="start" x="593.79" y="-702.7" font-family="arial" font-size="14.00">X2:2:GND</text>
<polygon fill="#000000" stroke="none" points="442.5,-696 442.5,-698 663,-698 663,-696 442.5,-696"/>
<polygon fill="#000000" stroke="none" points="442.5,-694 442.5,-696 663,-696 663,-694 442.5,-694"/>
<polygon fill="#000000" stroke="none" points="442.5,-692 442.5,-694 663,-694 663,-692 442.5,-692"/>
<text text-anchor="start" x="477.21" y="-676.7" font-family="arial" font-size="14.00"> </text>
</g>
<!-- X1&#45;&#45;W1 -->
<g id="edge1" class="edge">
<title>X1:e&#45;&#45;W1:w</title>
<path fill="none" stroke="#000000" stroke-width="2" d="M298.5,-717.5C362.63,-717.5 378.62,-718.5 442.5,-718.5"/>
<path fill="none" stroke="#ff0000" stroke-width="2" d="M298.5,-719.5C362.5,-719.5 378.5,-720.5 442.5,-720.5"/>
<path fill="none" stroke="#000000" stroke-width="2" d="M298.5,-721.5C362.38,-721.5 378.37,-722.5 442.5,-722.5"/>
</g>
<!-- X1&#45;&#45;W1 -->
<g id="edge3" class="edge">
<title>X1:e&#45;&#45;W1:w</title>
<path fill="none" stroke="#000000" stroke-width="2" d="M298.5,-693.5C362.38,-693.5 378.37,-692.5 442.5,-692.5"/>
<path fill="none" stroke="#000000" stroke-width="2" d="M298.5,-695.5C362.5,-695.5 378.5,-694.5 442.5,-694.5"/>
<path fill="none" stroke="#000000" stroke-width="2" d="M298.5,-697.5C362.63,-697.5 378.62,-696.5 442.5,-696.5"/>
</g>
<!-- X2 -->
<g id="node2" class="node">
<title>X2</title>
<polygon fill="#ffffff" stroke="black" points="1105.5,-698 807,-698 807,-577 1105.5,-577 1105.5,-698"/>
<polygon fill="none" stroke="black" points="807,-673.5 807,-698 1105.5,-698 1105.5,-673.5 807,-673.5"/>
<text text-anchor="start" x="947.25" y="-680.7" font-family="arial" font-size="14.00">X2</text>
<polygon fill="none" stroke="black" points="807,-649 807,-673.5 1014.5,-673.5 1014.5,-649 807,-649"/>
<text text-anchor="start" x="811" y="-656.2" font-family="arial" font-size="14.00">3&#45;pin JST XH 2.5mm connector</text>
<polygon fill="none" stroke="black" points="1014.5,-649 1014.5,-673.5 1066,-673.5 1066,-649 1014.5,-649"/>
<text text-anchor="start" x="1018.5" y="-656.2" font-family="arial" font-size="14.00">female</text>
<polygon fill="none" stroke="black" points="1066,-649 1066,-673.5 1105.5,-673.5 1105.5,-649 1066,-649"/>
<text text-anchor="start" x="1070" y="-656.2" font-family="arial" font-size="14.00">3&#45;pin</text>
<polygon fill="none" stroke="black" points="807,-625 807,-649 944.75,-649 944.75,-625 807,-625"/>
<text text-anchor="start" x="871.75" y="-631.7" font-family="arial" font-size="14.00">1</text>
<polygon fill="none" stroke="black" points="944.75,-625 944.75,-649 1105.5,-649 1105.5,-625 944.75,-625"/>
<text text-anchor="start" x="1009.75" y="-631.7" font-family="arial" font-size="14.00">VCC</text>
<polygon fill="none" stroke="black" points="807,-601 807,-625 944.75,-625 944.75,-601 807,-601"/>
<text text-anchor="start" x="871.75" y="-607.7" font-family="arial" font-size="14.00">2</text>
<polygon fill="none" stroke="black" points="944.75,-601 944.75,-625 1105.5,-625 1105.5,-601 944.75,-601"/>
<text text-anchor="start" x="1009.38" y="-607.7" font-family="arial" font-size="14.00">GND</text>
<polygon fill="none" stroke="black" points="807,-577 807,-601 944.75,-601 944.75,-577 807,-577"/>
<text text-anchor="start" x="871.75" y="-583.7" font-family="arial" font-size="14.00">3</text>
<polygon fill="none" stroke="black" points="944.75,-577 944.75,-601 1105.5,-601 1105.5,-577 944.75,-577"/>
<text text-anchor="start" x="1009.75" y="-583.7" font-family="arial" font-size="14.00">NON</text>
</g>
<!-- X3 -->
<g id="node3" class="node">
<title>X3</title>
<polygon fill="#ffffff" stroke="black" points="298.5,-534 0,-534 0,-413 298.5,-413 298.5,-534"/>
<polygon fill="none" stroke="black" points="0,-509.5 0,-534 298.5,-534 298.5,-509.5 0,-509.5"/>
<text text-anchor="start" x="140.25" y="-516.7" font-family="arial" font-size="14.00">X3</text>
<polygon fill="none" stroke="black" points="0,-485 0,-509.5 207.5,-509.5 207.5,-485 0,-485"/>
<text text-anchor="start" x="4" y="-492.2" font-family="arial" font-size="14.00">3&#45;pin JST XH 2.5mm connector</text>
<polygon fill="none" stroke="black" points="207.5,-485 207.5,-509.5 259,-509.5 259,-485 207.5,-485"/>
<text text-anchor="start" x="211.5" y="-492.2" font-family="arial" font-size="14.00">female</text>
<polygon fill="none" stroke="black" points="259,-485 259,-509.5 298.5,-509.5 298.5,-485 259,-485"/>
<text text-anchor="start" x="263" y="-492.2" font-family="arial" font-size="14.00">3&#45;pin</text>
<polygon fill="none" stroke="black" points="0,-461 0,-485 160.75,-485 160.75,-461 0,-461"/>
<text text-anchor="start" x="65" y="-467.7" font-family="arial" font-size="14.00">VCC</text>
<polygon fill="none" stroke="black" points="160.75,-461 160.75,-485 298.5,-485 298.5,-461 160.75,-461"/>
<text text-anchor="start" x="225.5" y="-467.7" font-family="arial" font-size="14.00">1</text>
<polygon fill="none" stroke="black" points="0,-437 0,-461 160.75,-461 160.75,-437 0,-437"/>
<text text-anchor="start" x="64.62" y="-443.7" font-family="arial" font-size="14.00">GND</text>
<polygon fill="none" stroke="black" points="160.75,-437 160.75,-461 298.5,-461 298.5,-437 160.75,-437"/>
<text text-anchor="start" x="225.5" y="-443.7" font-family="arial" font-size="14.00">2</text>
<polygon fill="none" stroke="black" points="0,-413 0,-437 160.75,-437 160.75,-413 0,-413"/>
<text text-anchor="start" x="65" y="-419.7" font-family="arial" font-size="14.00">NON</text>
<polygon fill="none" stroke="black" points="160.75,-413 160.75,-437 298.5,-437 298.5,-413 160.75,-413"/>
<text text-anchor="start" x="225.5" y="-419.7" font-family="arial" font-size="14.00">3</text>
</g>
<!-- W2 -->
<g id="node8" class="node">
<title>W2</title>
<polygon fill="#ffffff" stroke="black" points="658.88,-648 446.62,-648 446.62,-507 658.88,-507 658.88,-648"/>
<polygon fill="none" stroke="black" points="446.62,-623.5 446.62,-648 658.88,-648 658.88,-623.5 446.62,-623.5"/>
<text text-anchor="start" x="541.5" y="-630.7" font-family="arial" font-size="14.00">W2</text>
<polygon fill="none" stroke="black" points="446.62,-599 446.62,-623.5 469.62,-623.5 469.62,-599 446.62,-599"/>
<text text-anchor="start" x="450.62" y="-606.2" font-family="arial" font-size="14.00">2x</text>
<polygon fill="none" stroke="black" points="469.62,-599 469.62,-623.5 606.62,-623.5 606.62,-599 469.62,-599"/>
<text text-anchor="start" x="473.62" y="-606.2" font-family="arial" font-size="14.00">22 AWG (0.34 mm²)</text>
<polygon fill="none" stroke="black" points="606.62,-599 606.62,-623.5 658.88,-623.5 658.88,-599 606.62,-599"/>
<text text-anchor="start" x="610.62" y="-606.2" font-family="arial" font-size="14.00">0.03 m</text>
<text text-anchor="start" x="479.96" y="-583.7" font-family="arial" font-size="14.00"> </text>
<text text-anchor="start" x="449.58" y="-563.7" font-family="arial" font-size="14.00">X3:1:VCC</text>
<text text-anchor="start" x="519.38" y="-563.7" font-family="arial" font-size="14.00"> &#160;&#160;&#160;&#160;1:RD &#160;&#160;&#160;</text>
<text text-anchor="start" x="591.42" y="-563.7" font-family="arial" font-size="14.00">X2:1:VCC</text>
<polygon fill="#000000" stroke="none" points="446.62,-557 446.62,-559 658.88,-559 658.88,-557 446.62,-557"/>
<polygon fill="#ff0000" stroke="none" points="446.62,-555 446.62,-557 658.88,-557 658.88,-555 446.62,-555"/>
<polygon fill="#000000" stroke="none" points="446.62,-553 446.62,-555 658.88,-555 658.88,-553 446.62,-553"/>
<text text-anchor="start" x="449.21" y="-537.7" font-family="arial" font-size="14.00">X3:2:GND</text>
<text text-anchor="start" x="520.12" y="-537.7" font-family="arial" font-size="14.00"> &#160;&#160;&#160;&#160;2:BK &#160;&#160;&#160;</text>
<text text-anchor="start" x="591.04" y="-537.7" font-family="arial" font-size="14.00">X2:2:GND</text>
<polygon fill="#000000" stroke="none" points="446.62,-531 446.62,-533 658.88,-533 658.88,-531 446.62,-531"/>
<polygon fill="#000000" stroke="none" points="446.62,-529 446.62,-531 658.88,-531 658.88,-529 446.62,-529"/>
<polygon fill="#000000" stroke="none" points="446.62,-527 446.62,-529 658.88,-529 658.88,-527 446.62,-527"/>
<text text-anchor="start" x="479.96" y="-511.7" font-family="arial" font-size="14.00"> </text>
</g>
<!-- X3&#45;&#45;W2 -->
<g id="edge5" class="edge">
<title>X3:e&#45;&#45;W2:w</title>
<path fill="none" stroke="#000000" stroke-width="2" d="M298.5,-470.5C375.62,-472.57 372.62,-555.57 445.75,-553.5"/>
<path fill="none" stroke="#ff0000" stroke-width="2" d="M298.5,-472.5C373.62,-472.5 370.63,-555.5 445.75,-555.5"/>
<path fill="none" stroke="#000000" stroke-width="2" d="M298.5,-474.5C371.63,-472.43 368.63,-555.43 445.75,-557.5"/>
</g>
<!-- X3&#45;&#45;W2 -->
<g id="edge7" class="edge">
<title>X3:e&#45;&#45;W2:w</title>
<path fill="none" stroke="#000000" stroke-width="2" d="M298.5,-446.5C375.19,-448.55 373.06,-529.55 445.75,-527.5"/>
<path fill="none" stroke="#000000" stroke-width="2" d="M298.5,-448.5C373.19,-448.5 371.06,-529.5 445.75,-529.5"/>
<path fill="none" stroke="#000000" stroke-width="2" d="M298.5,-450.5C371.19,-448.45 369.06,-529.45 445.75,-531.5"/>
</g>
<!-- W3 -->
<g id="node9" class="node">
<title>W3</title>
<polygon fill="#ffffff" stroke="black" points="663,-483 442.5,-483 442.5,-342 663,-342 663,-483"/>
<polygon fill="none" stroke="black" points="442.5,-458.5 442.5,-483 663,-483 663,-458.5 442.5,-458.5"/>
<text text-anchor="start" x="541.5" y="-465.7" font-family="arial" font-size="14.00">W3</text>
<polygon fill="none" stroke="black" points="442.5,-434 442.5,-458.5 465.5,-458.5 465.5,-434 442.5,-434"/>
<text text-anchor="start" x="446.5" y="-441.2" font-family="arial" font-size="14.00">2x</text>
<polygon fill="none" stroke="black" points="465.5,-434 465.5,-458.5 602.5,-458.5 602.5,-434 465.5,-434"/>
<text text-anchor="start" x="469.5" y="-441.2" font-family="arial" font-size="14.00">22 AWG (0.34 mm²)</text>
<polygon fill="none" stroke="black" points="602.5,-434 602.5,-458.5 663,-458.5 663,-434 602.5,-434"/>
<text text-anchor="start" x="606.5" y="-441.2" font-family="arial" font-size="14.00">0.024 m</text>
<text text-anchor="start" x="477.21" y="-418.7" font-family="arial" font-size="14.00"> </text>
<text text-anchor="start" x="446.83" y="-398.7" font-family="arial" font-size="14.00">X3:1:VCC</text>
<text text-anchor="start" x="519.38" y="-398.7" font-family="arial" font-size="14.00"> &#160;&#160;&#160;&#160;1:RD &#160;&#160;&#160;</text>
<text text-anchor="start" x="594.17" y="-398.7" font-family="arial" font-size="14.00">X4:1:VCC</text>
<polygon fill="#000000" stroke="none" points="442.5,-392 442.5,-394 663,-394 663,-392 442.5,-392"/>
<polygon fill="#ff0000" stroke="none" points="442.5,-390 442.5,-392 663,-392 663,-390 442.5,-390"/>
<polygon fill="#000000" stroke="none" points="442.5,-388 442.5,-390 663,-390 663,-388 442.5,-388"/>
<text text-anchor="start" x="446.46" y="-372.7" font-family="arial" font-size="14.00">X3:2:GND</text>
<text text-anchor="start" x="520.12" y="-372.7" font-family="arial" font-size="14.00"> &#160;&#160;&#160;&#160;2:BK &#160;&#160;&#160;</text>
<text text-anchor="start" x="593.79" y="-372.7" font-family="arial" font-size="14.00">X4:2:GND</text>
<polygon fill="#000000" stroke="none" points="442.5,-366 442.5,-368 663,-368 663,-366 442.5,-366"/>
<polygon fill="#000000" stroke="none" points="442.5,-364 442.5,-366 663,-366 663,-364 442.5,-364"/>
<polygon fill="#000000" stroke="none" points="442.5,-362 442.5,-364 663,-364 663,-362 442.5,-362"/>
<text text-anchor="start" x="477.21" y="-346.7" font-family="arial" font-size="14.00"> </text>
</g>
<!-- X3&#45;&#45;W3 -->
<g id="edge9" class="edge">
<title>X3:e&#45;&#45;W3:w</title>
<path fill="none" stroke="#000000" stroke-width="2" d="M298.5,-470.5C370.15,-472.58 366.85,-390.58 442.5,-388.5"/>
<path fill="none" stroke="#ff0000" stroke-width="2" d="M298.5,-472.5C372.15,-472.5 368.85,-390.5 442.5,-390.5"/>
<path fill="none" stroke="#000000" stroke-width="2" d="M298.5,-474.5C374.15,-472.42 370.85,-390.42 442.5,-392.5"/>
</g>
<!-- X3&#45;&#45;W3 -->
<g id="edge11" class="edge">
<title>X3:e&#45;&#45;W3:w</title>
<path fill="none" stroke="#000000" stroke-width="2" d="M298.5,-446.5C370.6,-448.6 366.41,-364.6 442.5,-362.5"/>
<path fill="none" stroke="#000000" stroke-width="2" d="M298.5,-448.5C372.59,-448.5 368.41,-364.5 442.5,-364.5"/>
<path fill="none" stroke="#000000" stroke-width="2" d="M298.5,-450.5C374.59,-448.4 370.4,-364.4 442.5,-366.5"/>
</g>
<!-- X4 -->
<g id="node4" class="node">
<title>X4</title>
<polygon fill="#ffffff" stroke="black" points="1105.5,-368 807,-368 807,-247 1105.5,-247 1105.5,-368"/>
<polygon fill="none" stroke="black" points="807,-343.5 807,-368 1105.5,-368 1105.5,-343.5 807,-343.5"/>
<text text-anchor="start" x="947.25" y="-350.7" font-family="arial" font-size="14.00">X4</text>
<polygon fill="none" stroke="black" points="807,-319 807,-343.5 1014.5,-343.5 1014.5,-319 807,-319"/>
<text text-anchor="start" x="811" y="-326.2" font-family="arial" font-size="14.00">3&#45;pin JST XH 2.5mm connector</text>
<polygon fill="none" stroke="black" points="1014.5,-319 1014.5,-343.5 1066,-343.5 1066,-319 1014.5,-319"/>
<text text-anchor="start" x="1018.5" y="-326.2" font-family="arial" font-size="14.00">female</text>
<polygon fill="none" stroke="black" points="1066,-319 1066,-343.5 1105.5,-343.5 1105.5,-319 1066,-319"/>
<text text-anchor="start" x="1070" y="-326.2" font-family="arial" font-size="14.00">3&#45;pin</text>
<polygon fill="none" stroke="black" points="807,-295 807,-319 944.75,-319 944.75,-295 807,-295"/>
<text text-anchor="start" x="871.75" y="-301.7" font-family="arial" font-size="14.00">1</text>
<polygon fill="none" stroke="black" points="944.75,-295 944.75,-319 1105.5,-319 1105.5,-295 944.75,-295"/>
<text text-anchor="start" x="1009.75" y="-301.7" font-family="arial" font-size="14.00">VCC</text>
<polygon fill="none" stroke="black" points="807,-271 807,-295 944.75,-295 944.75,-271 807,-271"/>
<text text-anchor="start" x="871.75" y="-277.7" font-family="arial" font-size="14.00">2</text>
<polygon fill="none" stroke="black" points="944.75,-271 944.75,-295 1105.5,-295 1105.5,-271 944.75,-271"/>
<text text-anchor="start" x="1009.38" y="-277.7" font-family="arial" font-size="14.00">GND</text>
<polygon fill="none" stroke="black" points="807,-247 807,-271 944.75,-271 944.75,-247 807,-247"/>
<text text-anchor="start" x="871.75" y="-253.7" font-family="arial" font-size="14.00">3</text>
<polygon fill="none" stroke="black" points="944.75,-247 944.75,-271 1105.5,-271 1105.5,-247 944.75,-247"/>
<text text-anchor="start" x="1009.75" y="-253.7" font-family="arial" font-size="14.00">NON</text>
</g>
<!-- X5 -->
<g id="node5" class="node">
<title>X5</title>
<polygon fill="#ffffff" stroke="black" points="298.5,-203 0,-203 0,-82 298.5,-82 298.5,-203"/>
<polygon fill="none" stroke="black" points="0,-178.5 0,-203 298.5,-203 298.5,-178.5 0,-178.5"/>
<text text-anchor="start" x="140.25" y="-185.7" font-family="arial" font-size="14.00">X5</text>
<polygon fill="none" stroke="black" points="0,-154 0,-178.5 207.5,-178.5 207.5,-154 0,-154"/>
<text text-anchor="start" x="4" y="-161.2" font-family="arial" font-size="14.00">3&#45;pin JST XH 2.5mm connector</text>
<polygon fill="none" stroke="black" points="207.5,-154 207.5,-178.5 259,-178.5 259,-154 207.5,-154"/>
<text text-anchor="start" x="211.5" y="-161.2" font-family="arial" font-size="14.00">female</text>
<polygon fill="none" stroke="black" points="259,-154 259,-178.5 298.5,-178.5 298.5,-154 259,-154"/>
<text text-anchor="start" x="263" y="-161.2" font-family="arial" font-size="14.00">3&#45;pin</text>
<polygon fill="none" stroke="black" points="0,-130 0,-154 160.75,-154 160.75,-130 0,-130"/>
<text text-anchor="start" x="65" y="-136.7" font-family="arial" font-size="14.00">VCC</text>
<polygon fill="none" stroke="black" points="160.75,-130 160.75,-154 298.5,-154 298.5,-130 160.75,-130"/>
<text text-anchor="start" x="225.5" y="-136.7" font-family="arial" font-size="14.00">1</text>
<polygon fill="none" stroke="black" points="0,-106 0,-130 160.75,-130 160.75,-106 0,-106"/>
<text text-anchor="start" x="64.62" y="-112.7" font-family="arial" font-size="14.00">GND</text>
<polygon fill="none" stroke="black" points="160.75,-106 160.75,-130 298.5,-130 298.5,-106 160.75,-106"/>
<text text-anchor="start" x="225.5" y="-112.7" font-family="arial" font-size="14.00">2</text>
<polygon fill="none" stroke="black" points="0,-82 0,-106 160.75,-106 160.75,-82 0,-82"/>
<text text-anchor="start" x="65" y="-88.7" font-family="arial" font-size="14.00">NON</text>
<polygon fill="none" stroke="black" points="160.75,-82 160.75,-106 298.5,-106 298.5,-82 160.75,-82"/>
<text text-anchor="start" x="225.5" y="-88.7" font-family="arial" font-size="14.00">3</text>
</g>
<!-- W4 -->
<g id="node10" class="node">
<title>W4</title>
<polygon fill="#ffffff" stroke="black" points="663,-318 442.5,-318 442.5,-177 663,-177 663,-318"/>
<polygon fill="none" stroke="black" points="442.5,-293.5 442.5,-318 663,-318 663,-293.5 442.5,-293.5"/>
<text text-anchor="start" x="541.5" y="-300.7" font-family="arial" font-size="14.00">W4</text>
<polygon fill="none" stroke="black" points="442.5,-269 442.5,-293.5 465.5,-293.5 465.5,-269 442.5,-269"/>
<text text-anchor="start" x="446.5" y="-276.2" font-family="arial" font-size="14.00">2x</text>
<polygon fill="none" stroke="black" points="465.5,-269 465.5,-293.5 602.5,-293.5 602.5,-269 465.5,-269"/>
<text text-anchor="start" x="469.5" y="-276.2" font-family="arial" font-size="14.00">22 AWG (0.34 mm²)</text>
<polygon fill="none" stroke="black" points="602.5,-269 602.5,-293.5 663,-293.5 663,-269 602.5,-269"/>
<text text-anchor="start" x="606.5" y="-276.2" font-family="arial" font-size="14.00">0.024 m</text>
<text text-anchor="start" x="477.21" y="-253.7" font-family="arial" font-size="14.00"> </text>
<text text-anchor="start" x="446.83" y="-233.7" font-family="arial" font-size="14.00">X5:1:VCC</text>
<text text-anchor="start" x="519.38" y="-233.7" font-family="arial" font-size="14.00"> &#160;&#160;&#160;&#160;1:RD &#160;&#160;&#160;</text>
<text text-anchor="start" x="594.17" y="-233.7" font-family="arial" font-size="14.00">X4:1:VCC</text>
<polygon fill="#000000" stroke="none" points="442.5,-227 442.5,-229 663,-229 663,-227 442.5,-227"/>
<polygon fill="#ff0000" stroke="none" points="442.5,-225 442.5,-227 663,-227 663,-225 442.5,-225"/>
<polygon fill="#000000" stroke="none" points="442.5,-223 442.5,-225 663,-225 663,-223 442.5,-223"/>
<text text-anchor="start" x="446.46" y="-207.7" font-family="arial" font-size="14.00">X5:2:GND</text>
<text text-anchor="start" x="520.12" y="-207.7" font-family="arial" font-size="14.00"> &#160;&#160;&#160;&#160;2:BK &#160;&#160;&#160;</text>
<text text-anchor="start" x="593.79" y="-207.7" font-family="arial" font-size="14.00">X4:2:GND</text>
<polygon fill="#000000" stroke="none" points="442.5,-201 442.5,-203 663,-203 663,-201 442.5,-201"/>
<polygon fill="#000000" stroke="none" points="442.5,-199 442.5,-201 663,-201 663,-199 442.5,-199"/>
<polygon fill="#000000" stroke="none" points="442.5,-197 442.5,-199 663,-199 663,-197 442.5,-197"/>
<text text-anchor="start" x="477.21" y="-181.7" font-family="arial" font-size="14.00"> </text>
</g>
<!-- X5&#45;&#45;W4 -->
<g id="edge13" class="edge">
<title>X5:e&#45;&#45;W4:w</title>
<path fill="none" stroke="#000000" stroke-width="2" d="M298.5,-139.5C374.59,-141.6 370.4,-225.6 442.5,-223.5"/>
<path fill="none" stroke="#ff0000" stroke-width="2" d="M298.5,-141.5C372.59,-141.5 368.41,-225.5 442.5,-225.5"/>
<path fill="none" stroke="#000000" stroke-width="2" d="M298.5,-143.5C370.6,-141.4 366.41,-225.4 442.5,-227.5"/>
</g>
<!-- X5&#45;&#45;W4 -->
<g id="edge15" class="edge">
<title>X5:e&#45;&#45;W4:w</title>
<path fill="none" stroke="#000000" stroke-width="2" d="M298.5,-115.5C374.15,-117.58 370.85,-199.58 442.5,-197.5"/>
<path fill="none" stroke="#000000" stroke-width="2" d="M298.5,-117.5C372.15,-117.5 368.85,-199.5 442.5,-199.5"/>
<path fill="none" stroke="#000000" stroke-width="2" d="M298.5,-119.5C370.15,-117.42 366.85,-199.42 442.5,-201.5"/>
</g>
<!-- W5 -->
<g id="node11" class="node">
<title>W5</title>
<polygon fill="#ffffff" stroke="black" points="658.88,-153 446.62,-153 446.62,-12 658.88,-12 658.88,-153"/>
<polygon fill="none" stroke="black" points="446.62,-128.5 446.62,-153 658.88,-153 658.88,-128.5 446.62,-128.5"/>
<text text-anchor="start" x="541.5" y="-135.7" font-family="arial" font-size="14.00">W5</text>
<polygon fill="none" stroke="black" points="446.62,-104 446.62,-128.5 469.62,-128.5 469.62,-104 446.62,-104"/>
<text text-anchor="start" x="450.62" y="-111.2" font-family="arial" font-size="14.00">2x</text>
<polygon fill="none" stroke="black" points="469.62,-104 469.62,-128.5 606.62,-128.5 606.62,-104 469.62,-104"/>
<text text-anchor="start" x="473.62" y="-111.2" font-family="arial" font-size="14.00">22 AWG (0.34 mm²)</text>
<polygon fill="none" stroke="black" points="606.62,-104 606.62,-128.5 658.88,-128.5 658.88,-104 606.62,-104"/>
<text text-anchor="start" x="610.62" y="-111.2" font-family="arial" font-size="14.00">0.03 m</text>
<text text-anchor="start" x="479.96" y="-88.7" font-family="arial" font-size="14.00"> </text>
<text text-anchor="start" x="449.58" y="-68.7" font-family="arial" font-size="14.00">X5:1:VCC</text>
<text text-anchor="start" x="519.38" y="-68.7" font-family="arial" font-size="14.00"> &#160;&#160;&#160;&#160;1:RD &#160;&#160;&#160;</text>
<text text-anchor="start" x="591.42" y="-68.7" font-family="arial" font-size="14.00">X6:1:VCC</text>
<polygon fill="#000000" stroke="none" points="446.62,-62 446.62,-64 658.88,-64 658.88,-62 446.62,-62"/>
<polygon fill="#ff0000" stroke="none" points="446.62,-60 446.62,-62 658.88,-62 658.88,-60 446.62,-60"/>
<polygon fill="#000000" stroke="none" points="446.62,-58 446.62,-60 658.88,-60 658.88,-58 446.62,-58"/>
<text text-anchor="start" x="449.21" y="-42.7" font-family="arial" font-size="14.00">X5:2:GND</text>
<text text-anchor="start" x="520.12" y="-42.7" font-family="arial" font-size="14.00"> &#160;&#160;&#160;&#160;2:BK &#160;&#160;&#160;</text>
<text text-anchor="start" x="591.04" y="-42.7" font-family="arial" font-size="14.00">X6:2:GND</text>
<polygon fill="#000000" stroke="none" points="446.62,-36 446.62,-38 658.88,-38 658.88,-36 446.62,-36"/>
<polygon fill="#000000" stroke="none" points="446.62,-34 446.62,-36 658.88,-36 658.88,-34 446.62,-34"/>
<polygon fill="#000000" stroke="none" points="446.62,-32 446.62,-34 658.88,-34 658.88,-32 446.62,-32"/>
<text text-anchor="start" x="479.96" y="-16.7" font-family="arial" font-size="14.00"> </text>
</g>
<!-- X5&#45;&#45;W5 -->
<g id="edge17" class="edge">
<title>X5:e&#45;&#45;W5:w</title>
<path fill="none" stroke="#000000" stroke-width="2" d="M298.5,-139.5C371.19,-141.55 369.06,-60.55 445.75,-58.5"/>
<path fill="none" stroke="#ff0000" stroke-width="2" d="M298.5,-141.5C373.19,-141.5 371.06,-60.5 445.75,-60.5"/>
<path fill="none" stroke="#000000" stroke-width="2" d="M298.5,-143.5C375.19,-141.45 373.06,-60.45 445.75,-62.5"/>
</g>
<!-- X5&#45;&#45;W5 -->
<g id="edge19" class="edge">
<title>X5:e&#45;&#45;W5:w</title>
<path fill="none" stroke="#000000" stroke-width="2" d="M298.5,-115.5C371.63,-117.57 368.63,-34.57 445.75,-32.5"/>
<path fill="none" stroke="#000000" stroke-width="2" d="M298.5,-117.5C373.62,-117.5 370.63,-34.5 445.75,-34.5"/>
<path fill="none" stroke="#000000" stroke-width="2" d="M298.5,-119.5C375.62,-117.43 372.62,-34.43 445.75,-36.5"/>
</g>
<!-- X6 -->
<g id="node6" class="node">
<title>X6</title>
<polygon fill="#ffffff" stroke="black" points="1105.5,-121 807,-121 807,0 1105.5,0 1105.5,-121"/>
<polygon fill="none" stroke="black" points="807,-96.5 807,-121 1105.5,-121 1105.5,-96.5 807,-96.5"/>
<text text-anchor="start" x="947.25" y="-103.7" font-family="arial" font-size="14.00">X6</text>
<polygon fill="none" stroke="black" points="807,-72 807,-96.5 1014.5,-96.5 1014.5,-72 807,-72"/>
<text text-anchor="start" x="811" y="-79.2" font-family="arial" font-size="14.00">3&#45;pin JST XH 2.5mm connector</text>
<polygon fill="none" stroke="black" points="1014.5,-72 1014.5,-96.5 1066,-96.5 1066,-72 1014.5,-72"/>
<text text-anchor="start" x="1018.5" y="-79.2" font-family="arial" font-size="14.00">female</text>
<polygon fill="none" stroke="black" points="1066,-72 1066,-96.5 1105.5,-96.5 1105.5,-72 1066,-72"/>
<text text-anchor="start" x="1070" y="-79.2" font-family="arial" font-size="14.00">3&#45;pin</text>
<polygon fill="none" stroke="black" points="807,-48 807,-72 944.75,-72 944.75,-48 807,-48"/>
<text text-anchor="start" x="871.75" y="-54.7" font-family="arial" font-size="14.00">1</text>
<polygon fill="none" stroke="black" points="944.75,-48 944.75,-72 1105.5,-72 1105.5,-48 944.75,-48"/>
<text text-anchor="start" x="1009.75" y="-54.7" font-family="arial" font-size="14.00">VCC</text>
<polygon fill="none" stroke="black" points="807,-24 807,-48 944.75,-48 944.75,-24 807,-24"/>
<text text-anchor="start" x="871.75" y="-30.7" font-family="arial" font-size="14.00">2</text>
<polygon fill="none" stroke="black" points="944.75,-24 944.75,-48 1105.5,-48 1105.5,-24 944.75,-24"/>
<text text-anchor="start" x="1009.38" y="-30.7" font-family="arial" font-size="14.00">GND</text>
<polygon fill="none" stroke="black" points="807,0 807,-24 944.75,-24 944.75,0 807,0"/>
<text text-anchor="start" x="871.75" y="-6.7" font-family="arial" font-size="14.00">3</text>
<polygon fill="none" stroke="black" points="944.75,0 944.75,-24 1105.5,-24 1105.5,0 944.75,0"/>
<text text-anchor="start" x="1009.75" y="-6.7" font-family="arial" font-size="14.00">NON</text>
</g>
<!-- W1&#45;&#45;X2 -->
<g id="edge2" class="edge">
<title>W1:e&#45;&#45;X2:w</title>
<path fill="none" stroke="#000000" stroke-width="2" d="M663,-718.5C735.1,-720.6 730.91,-636.6 807,-634.5"/>
<path fill="none" stroke="#ff0000" stroke-width="2" d="M663,-720.5C737.09,-720.5 732.91,-636.5 807,-636.5"/>
<path fill="none" stroke="#000000" stroke-width="2" d="M663,-722.5C739.09,-720.4 734.9,-636.4 807,-638.5"/>
</g>
<!-- W1&#45;&#45;X2 -->
<g id="edge4" class="edge">
<title>W1:e&#45;&#45;X2:w</title>
<path fill="none" stroke="#000000" stroke-width="2" d="M663,-692.5C734.65,-694.58 731.35,-612.58 807,-610.5"/>
<path fill="none" stroke="#000000" stroke-width="2" d="M663,-694.5C736.65,-694.5 733.35,-612.5 807,-612.5"/>
<path fill="none" stroke="#000000" stroke-width="2" d="M663,-696.5C738.65,-694.42 735.35,-612.42 807,-614.5"/>
</g>
<!-- W2&#45;&#45;X2 -->
<g id="edge6" class="edge">
<title>W2:e&#45;&#45;X2:w</title>
<path fill="none" stroke="#000000" stroke-width="2" d="M659.75,-553.5C736.44,-555.55 734.31,-636.55 807,-634.5"/>
<path fill="none" stroke="#ff0000" stroke-width="2" d="M659.75,-555.5C734.44,-555.5 732.31,-636.5 807,-636.5"/>
<path fill="none" stroke="#000000" stroke-width="2" d="M659.75,-557.5C732.44,-555.45 730.31,-636.45 807,-638.5"/>
</g>
<!-- W2&#45;&#45;X2 -->
<g id="edge8" class="edge">
<title>W2:e&#45;&#45;X2:w</title>
<path fill="none" stroke="#000000" stroke-width="2" d="M659.75,-527.5C736.87,-529.57 733.87,-612.57 807,-610.5"/>
<path fill="none" stroke="#000000" stroke-width="2" d="M659.75,-529.5C734.87,-529.5 731.88,-612.5 807,-612.5"/>
<path fill="none" stroke="#000000" stroke-width="2" d="M659.75,-531.5C732.88,-529.43 729.88,-612.43 807,-614.5"/>
</g>
<!-- W3&#45;&#45;X4 -->
<g id="edge10" class="edge">
<title>W3:e&#45;&#45;X4:w</title>
<path fill="none" stroke="#000000" stroke-width="2" d="M663,-388.5C735.1,-390.6 730.91,-306.6 807,-304.5"/>
<path fill="none" stroke="#ff0000" stroke-width="2" d="M663,-390.5C737.09,-390.5 732.91,-306.5 807,-306.5"/>
<path fill="none" stroke="#000000" stroke-width="2" d="M663,-392.5C739.09,-390.4 734.9,-306.4 807,-308.5"/>
</g>
<!-- W3&#45;&#45;X4 -->
<g id="edge12" class="edge">
<title>W3:e&#45;&#45;X4:w</title>
<path fill="none" stroke="#000000" stroke-width="2" d="M663,-362.5C734.65,-364.58 731.35,-282.58 807,-280.5"/>
<path fill="none" stroke="#000000" stroke-width="2" d="M663,-364.5C736.65,-364.5 733.35,-282.5 807,-282.5"/>
<path fill="none" stroke="#000000" stroke-width="2" d="M663,-366.5C738.65,-364.42 735.35,-282.42 807,-284.5"/>
</g>
<!-- W4&#45;&#45;X4 -->
<g id="edge14" class="edge">
<title>W4:e&#45;&#45;X4:w</title>
<path fill="none" stroke="#000000" stroke-width="2" d="M663,-223.5C738.43,-225.57 735.57,-306.57 807,-304.5"/>
<path fill="none" stroke="#ff0000" stroke-width="2" d="M663,-225.5C736.43,-225.5 733.57,-306.5 807,-306.5"/>
<path fill="none" stroke="#000000" stroke-width="2" d="M663,-227.5C734.43,-225.43 731.57,-306.43 807,-308.5"/>
</g>
<!-- W4&#45;&#45;X4 -->
<g id="edge16" class="edge">
<title>W4:e&#45;&#45;X4:w</title>
<path fill="none" stroke="#000000" stroke-width="2" d="M663,-197.5C738.87,-199.59 735.13,-282.59 807,-280.5"/>
<path fill="none" stroke="#000000" stroke-width="2" d="M663,-199.5C736.87,-199.5 733.13,-282.5 807,-282.5"/>
<path fill="none" stroke="#000000" stroke-width="2" d="M663,-201.5C734.87,-199.41 731.13,-282.41 807,-284.5"/>
</g>
<!-- W5&#45;&#45;X6 -->
<g id="edge18" class="edge">
<title>W5:e&#45;&#45;X6:w</title>
<path fill="none" stroke="#000000" stroke-width="2" d="M659.75,-58.5C725.07,-58.5 741.43,-57.5 807,-57.5"/>
<path fill="none" stroke="#ff0000" stroke-width="2" d="M659.75,-60.5C725.2,-60.5 741.55,-59.5 807,-59.5"/>
<path fill="none" stroke="#000000" stroke-width="2" d="M659.75,-62.5C725.32,-62.5 741.68,-61.5 807,-61.5"/>
</g>
<!-- W5&#45;&#45;X6 -->
<g id="edge20" class="edge">
<title>W5:e&#45;&#45;X6:w</title>
<path fill="none" stroke="#000000" stroke-width="2" d="M659.75,-32.5C725.32,-32.5 741.68,-33.5 807,-33.5"/>
<path fill="none" stroke="#000000" stroke-width="2" d="M659.75,-34.5C725.2,-34.5 741.55,-35.5 807,-35.5"/>
<path fill="none" stroke="#000000" stroke-width="2" d="M659.75,-36.5C725.07,-36.5 741.43,-37.5 807,-37.5"/>
</g>
</g>
</svg>
