<?xml version="1.0" encoding="UTF-8" standalone="no"?>
<!DOCTYPE svg PUBLIC "-//W3C//DTD SVG 1.1//EN"
 "http://www.w3.org/Graphics/SVG/1.1/DTD/svg11.dtd">
<!-- Generated by graphviz version 10.0.1 (20240210.2158)
 -->
<!-- Pages: 1 -->
<svg width="1105pt" height="821pt"
 viewBox="0.00 0.00 1105.25 821.00" xmlns="http://www.w3.org/2000/svg" xmlns:xlink="http://www.w3.org/1999/xlink">
<g id="graph0" class="graph" transform="scale(1 1) rotate(0) translate(4 817)">
<polygon fill="#ffffff" stroke="none" points="-4,4 -4,-817 1101.25,-817 1101.25,4 -4,4"/>
<!-- X1 -->
<g id="node1" class="node">
<title>X1</title>
<polygon fill="#ffffff" stroke="black" points="298.5,-781 0,-781 0,-684 298.5,-684 298.5,-781"/>
<polygon fill="none" stroke="black" points="0,-756.5 0,-781 298.5,-781 298.5,-756.5 0,-756.5"/>
<text text-anchor="start" x="140.25" y="-763.7" font-family="arial" font-size="14.00">X1</text>
<polygon fill="none" stroke="black" points="0,-732 0,-756.5 207.5,-756.5 207.5,-732 0,-732"/>
<text text-anchor="start" x="4" y="-739.2" font-family="arial" font-size="14.00">2&#45;pin JST XH 2.5mm connector</text>
<polygon fill="none" stroke="black" points="207.5,-732 207.5,-756.5 259,-756.5 259,-732 207.5,-732"/>
<text text-anchor="start" x="211.5" y="-739.2" font-family="arial" font-size="14.00">female</text>
<polygon fill="none" stroke="black" points="259,-732 259,-756.5 298.5,-756.5 298.5,-732 259,-732"/>
<text text-anchor="start" x="263" y="-739.2" font-family="arial" font-size="14.00">2&#45;pin</text>
<polygon fill="none" stroke="black" points="0,-708 0,-732 160.75,-732 160.75,-708 0,-708"/>
<text text-anchor="start" x="65" y="-714.7" font-family="arial" font-size="14.00">VCC</text>
<polygon fill="none" stroke="black" points="160.75,-708 160.75,-732 298.5,-732 298.5,-708 160.75,-708"/>
<text text-anchor="start" x="225.5" y="-714.7" font-family="arial" font-size="14.00">1</text>
<polygon fill="none" stroke="black" points="0,-684 0,-708 160.75,-708 160.75,-684 0,-684"/>
<text text-anchor="start" x="64.62" y="-690.7" font-family="arial" font-size="14.00">GND</text>
<polygon fill="none" stroke="black" points="160.75,-684 160.75,-708 298.5,-708 298.5,-684 160.75,-684"/>
<text text-anchor="start" x="225.5" y="-690.7" font-family="arial" font-size="14.00">2</text>
</g>
<!-- W1 -->
<g id="node7" class="node">
<title>W1</title>
<polygon fill="#ffffff" stroke="black" points="654.75,-813 442.5,-813 442.5,-672 654.75,-672 654.75,-813"/>
<polygon fill="none" stroke="black" points="442.5,-788.5 442.5,-813 654.75,-813 654.75,-788.5 442.5,-788.5"/>
<text text-anchor="start" x="537.38" y="-795.7" font-family="arial" font-size="14.00">W1</text>
<polygon fill="none" stroke="black" points="442.5,-764 442.5,-788.5 465.5,-788.5 465.5,-764 442.5,-764"/>
<text text-anchor="start" x="446.5" y="-771.2" font-family="arial" font-size="14.00">2x</text>
<polygon fill="none" stroke="black" points="465.5,-764 465.5,-788.5 602.5,-788.5 602.5,-764 465.5,-764"/>
<text text-anchor="start" x="469.5" y="-771.2" font-family="arial" font-size="14.00">22 AWG (0.34 mm²)</text>
<polygon fill="none" stroke="black" points="602.5,-764 602.5,-788.5 654.75,-788.5 654.75,-764 602.5,-764"/>
<text text-anchor="start" x="606.5" y="-771.2" font-family="arial" font-size="14.00">0.38 m</text>
<text text-anchor="start" x="475.83" y="-748.7" font-family="arial" font-size="14.00"> </text>
<text text-anchor="start" x="445.46" y="-728.7" font-family="arial" font-size="14.00">X1:1:VCC</text>
<text text-anchor="start" x="515.25" y="-728.7" font-family="arial" font-size="14.00"> &#160;&#160;&#160;&#160;1:RD &#160;&#160;&#160;</text>
<text text-anchor="start" x="587.29" y="-728.7" font-family="arial" font-size="14.00">X2:1:VCC</text>
<polygon fill="#000000" stroke="none" points="442.5,-722 442.5,-724 654.75,-724 654.75,-722 442.5,-722"/>
<polygon fill="#ff0000" stroke="none" points="442.5,-720 442.5,-722 654.75,-722 654.75,-720 442.5,-720"/>
<polygon fill="#000000" stroke="none" points="442.5,-718 442.5,-720 654.75,-720 654.75,-718 442.5,-718"/>
<text text-anchor="start" x="445.08" y="-702.7" font-family="arial" font-size="14.00">X1:2:GND</text>
<text text-anchor="start" x="516" y="-702.7" font-family="arial" font-size="14.00"> &#160;&#160;&#160;&#160;2:BK &#160;&#160;&#160;</text>
<text text-anchor="start" x="586.92" y="-702.7" font-family="arial" font-size="14.00">X2:2:GND</text>
<polygon fill="#000000" stroke="none" points="442.5,-696 442.5,-698 654.75,-698 654.75,-696 442.5,-696"/>
<polygon fill="#000000" stroke="none" points="442.5,-694 442.5,-696 654.75,-696 654.75,-694 442.5,-694"/>
<polygon fill="#000000" stroke="none" points="442.5,-692 442.5,-694 654.75,-694 654.75,-692 442.5,-692"/>
<text text-anchor="start" x="475.83" y="-676.7" font-family="arial" font-size="14.00"> </text>
</g>
<!-- X1&#45;&#45;W1 -->
<g id="edge1" class="edge">
<title>X1:e&#45;&#45;W1:w</title>
<path fill="none" stroke="#000000" stroke-width="2" d="M298.5,-717.5C362.63,-717.5 378.62,-718.5 442.5,-718.5"/>
<path fill="none" stroke="#ff0000" stroke-width="2" d="M298.5,-719.5C362.5,-719.5 378.5,-720.5 442.5,-720.5"/>
<path fill="none" stroke="#000000" stroke-width="2" d="M298.5,-721.5C362.38,-721.5 378.37,-722.5 442.5,-722.5"/>
</g>
<!-- X1&#45;&#45;W1 -->
<g id="edge3" class="edge">
<title>X1:e&#45;&#45;W1:w</title>
<path fill="none" stroke="#000000" stroke-width="2" d="M298.5,-693.5C362.38,-693.5 378.37,-692.5 442.5,-692.5"/>
<path fill="none" stroke="#000000" stroke-width="2" d="M298.5,-695.5C362.5,-695.5 378.5,-694.5 442.5,-694.5"/>
<path fill="none" stroke="#000000" stroke-width="2" d="M298.5,-697.5C362.63,-697.5 378.62,-696.5 442.5,-696.5"/>
</g>
<!-- X2 -->
<g id="node2" class="node">
<title>X2</title>
<polygon fill="#ffffff" stroke="black" points="1097.25,-698 798.75,-698 798.75,-577 1097.25,-577 1097.25,-698"/>
<polygon fill="none" stroke="black" points="798.75,-673.5 798.75,-698 1097.25,-698 1097.25,-673.5 798.75,-673.5"/>
<text text-anchor="start" x="939" y="-680.7" font-family="arial" font-size="14.00">X2</text>
<polygon fill="none" stroke="black" points="798.75,-649 798.75,-673.5 1006.25,-673.5 1006.25,-649 798.75,-649"/>
<text text-anchor="start" x="802.75" y="-656.2" font-family="arial" font-size="14.00">3&#45;pin JST XH 2.5mm connector</text>
<polygon fill="none" stroke="black" points="1006.25,-649 1006.25,-673.5 1057.75,-673.5 1057.75,-649 1006.25,-649"/>
<text text-anchor="start" x="1010.25" y="-656.2" font-family="arial" font-size="14.00">female</text>
<polygon fill="none" stroke="black" points="1057.75,-649 1057.75,-673.5 1097.25,-673.5 1097.25,-649 1057.75,-649"/>
<text text-anchor="start" x="1061.75" y="-656.2" font-family="arial" font-size="14.00">3&#45;pin</text>
<polygon fill="none" stroke="black" points="798.75,-625 798.75,-649 936.5,-649 936.5,-625 798.75,-625"/>
<text text-anchor="start" x="863.5" y="-631.7" font-family="arial" font-size="14.00">1</text>
<polygon fill="none" stroke="black" points="936.5,-625 936.5,-649 1097.25,-649 1097.25,-625 936.5,-625"/>
<text text-anchor="start" x="1001.5" y="-631.7" font-family="arial" font-size="14.00">VCC</text>
<polygon fill="none" stroke="black" points="798.75,-601 798.75,-625 936.5,-625 936.5,-601 798.75,-601"/>
<text text-anchor="start" x="863.5" y="-607.7" font-family="arial" font-size="14.00">2</text>
<polygon fill="none" stroke="black" points="936.5,-601 936.5,-625 1097.25,-625 1097.25,-601 936.5,-601"/>
<text text-anchor="start" x="1001.12" y="-607.7" font-family="arial" font-size="14.00">GND</text>
<polygon fill="none" stroke="black" points="798.75,-577 798.75,-601 936.5,-601 936.5,-577 798.75,-577"/>
<text text-anchor="start" x="863.5" y="-583.7" font-family="arial" font-size="14.00">3</text>
<polygon fill="none" stroke="black" points="936.5,-577 936.5,-601 1097.25,-601 1097.25,-577 936.5,-577"/>
<text text-anchor="start" x="1001.5" y="-583.7" font-family="arial" font-size="14.00">NON</text>
</g>
<!-- X3 -->
<g id="node3" class="node">
<title>X3</title>
<polygon fill="#ffffff" stroke="black" points="298.5,-534 0,-534 0,-413 298.5,-413 298.5,-534"/>
<polygon fill="none" stroke="black" points="0,-509.5 0,-534 298.5,-534 298.5,-509.5 0,-509.5"/>
<text text-anchor="start" x="140.25" y="-516.7" font-family="arial" font-size="14.00">X3</text>
<polygon fill="none" stroke="black" points="0,-485 0,-509.5 207.5,-509.5 207.5,-485 0,-485"/>
<text text-anchor="start" x="4" y="-492.2" font-family="arial" font-size="14.00">3&#45;pin JST XH 2.5mm connector</text>
<polygon fill="none" stroke="black" points="207.5,-485 207.5,-509.5 259,-509.5 259,-485 207.5,-485"/>
<text text-anchor="start" x="211.5" y="-492.2" font-family="arial" font-size="14.00">female</text>
<polygon fill="none" stroke="black" points="259,-485 259,-509.5 298.5,-509.5 298.5,-485 259,-485"/>
<text text-anchor="start" x="263" y="-492.2" font-family="arial" font-size="14.00">3&#45;pin</text>
<polygon fill="none" stroke="black" points="0,-461 0,-485 160.75,-485 160.75,-461 0,-461"/>
<text text-anchor="start" x="65" y="-467.7" font-family="arial" font-size="14.00">VCC</text>
<polygon fill="none" stroke="black" points="160.75,-461 160.75,-485 298.5,-485 298.5,-461 160.75,-461"/>
<text text-anchor="start" x="225.5" y="-467.7" font-family="arial" font-size="14.00">1</text>
<polygon fill="none" stroke="black" points="0,-437 0,-461 160.75,-461 160.75,-437 0,-437"/>
<text text-anchor="start" x="64.62" y="-443.7" font-family="arial" font-size="14.00">GND</text>
<polygon fill="none" stroke="black" points="160.75,-437 160.75,-461 298.5,-461 298.5,-437 160.75,-437"/>
<text text-anchor="start" x="225.5" y="-443.7" font-family="arial" font-size="14.00">2</text>
<polygon fill="none" stroke="black" points="0,-413 0,-437 160.75,-437 160.75,-413 0,-413"/>
<text text-anchor="start" x="65" y="-419.7" font-family="arial" font-size="14.00">NON</text>
<polygon fill="none" stroke="black" points="160.75,-413 160.75,-437 298.5,-437 298.5,-413 160.75,-413"/>
<text text-anchor="start" x="225.5" y="-419.7" font-family="arial" font-size="14.00">3</text>
</g>
<!-- W2 -->
<g id="node8" class="node">
<title>W2</title>
<polygon fill="#ffffff" stroke="black" points="654.75,-648 442.5,-648 442.5,-507 654.75,-507 654.75,-648"/>
<polygon fill="none" stroke="black" points="442.5,-623.5 442.5,-648 654.75,-648 654.75,-623.5 442.5,-623.5"/>
<text text-anchor="start" x="537.38" y="-630.7" font-family="arial" font-size="14.00">W2</text>
<polygon fill="none" stroke="black" points="442.5,-599 442.5,-623.5 465.5,-623.5 465.5,-599 442.5,-599"/>
<text text-anchor="start" x="446.5" y="-606.2" font-family="arial" font-size="14.00">2x</text>
<polygon fill="none" stroke="black" points="465.5,-599 465.5,-623.5 602.5,-623.5 602.5,-599 465.5,-599"/>
<text text-anchor="start" x="469.5" y="-606.2" font-family="arial" font-size="14.00">22 AWG (0.34 mm²)</text>
<polygon fill="none" stroke="black" points="602.5,-599 602.5,-623.5 654.75,-623.5 654.75,-599 602.5,-599"/>
<text text-anchor="start" x="606.5" y="-606.2" font-family="arial" font-size="14.00">0.36 m</text>
<text text-anchor="start" x="475.83" y="-583.7" font-family="arial" font-size="14.00"> </text>
<text text-anchor="start" x="445.46" y="-563.7" font-family="arial" font-size="14.00">X3:1:VCC</text>
<text text-anchor="start" x="515.25" y="-563.7" font-family="arial" font-size="14.00"> &#160;&#160;&#160;&#160;1:RD &#160;&#160;&#160;</text>
<text text-anchor="start" x="587.29" y="-563.7" font-family="arial" font-size="14.00">X2:1:VCC</text>
<polygon fill="#000000" stroke="none" points="442.5,-557 442.5,-559 654.75,-559 654.75,-557 442.5,-557"/>
<polygon fill="#ff0000" stroke="none" points="442.5,-555 442.5,-557 654.75,-557 654.75,-555 442.5,-555"/>
<polygon fill="#000000" stroke="none" points="442.5,-553 442.5,-555 654.75,-555 654.75,-553 442.5,-553"/>
<text text-anchor="start" x="445.08" y="-537.7" font-family="arial" font-size="14.00">X3:2:GND</text>
<text text-anchor="start" x="516" y="-537.7" font-family="arial" font-size="14.00"> &#160;&#160;&#160;&#160;2:BK &#160;&#160;&#160;</text>
<text text-anchor="start" x="586.92" y="-537.7" font-family="arial" font-size="14.00">X2:2:GND</text>
<polygon fill="#000000" stroke="none" points="442.5,-531 442.5,-533 654.75,-533 654.75,-531 442.5,-531"/>
<polygon fill="#000000" stroke="none" points="442.5,-529 442.5,-531 654.75,-531 654.75,-529 442.5,-529"/>
<polygon fill="#000000" stroke="none" points="442.5,-527 442.5,-529 654.75,-529 654.75,-527 442.5,-527"/>
<text text-anchor="start" x="475.83" y="-511.7" font-family="arial" font-size="14.00"> </text>
</g>
<!-- X3&#45;&#45;W2 -->
<g id="edge5" class="edge">
<title>X3:e&#45;&#45;W2:w</title>
<path fill="none" stroke="#000000" stroke-width="2" d="M298.5,-470.5C374.37,-472.59 370.63,-555.59 442.5,-553.5"/>
<path fill="none" stroke="#ff0000" stroke-width="2" d="M298.5,-472.5C372.37,-472.5 368.63,-555.5 442.5,-555.5"/>
<path fill="none" stroke="#000000" stroke-width="2" d="M298.5,-474.5C370.37,-472.41 366.63,-555.41 442.5,-557.5"/>
</g>
<!-- X3&#45;&#45;W2 -->
<g id="edge7" class="edge">
<title>X3:e&#45;&#45;W2:w</title>
<path fill="none" stroke="#000000" stroke-width="2" d="M298.5,-446.5C373.93,-448.57 371.07,-529.57 442.5,-527.5"/>
<path fill="none" stroke="#000000" stroke-width="2" d="M298.5,-448.5C371.93,-448.5 369.07,-529.5 442.5,-529.5"/>
<path fill="none" stroke="#000000" stroke-width="2" d="M298.5,-450.5C369.93,-448.43 367.07,-529.43 442.5,-531.5"/>
</g>
<!-- W3 -->
<g id="node9" class="node">
<title>W3</title>
<polygon fill="#ffffff" stroke="black" points="654.75,-483 442.5,-483 442.5,-342 654.75,-342 654.75,-483"/>
<polygon fill="none" stroke="black" points="442.5,-458.5 442.5,-483 654.75,-483 654.75,-458.5 442.5,-458.5"/>
<text text-anchor="start" x="537.38" y="-465.7" font-family="arial" font-size="14.00">W3</text>
<polygon fill="none" stroke="black" points="442.5,-434 442.5,-458.5 465.5,-458.5 465.5,-434 442.5,-434"/>
<text text-anchor="start" x="446.5" y="-441.2" font-family="arial" font-size="14.00">2x</text>
<polygon fill="none" stroke="black" points="465.5,-434 465.5,-458.5 602.5,-458.5 602.5,-434 465.5,-434"/>
<text text-anchor="start" x="469.5" y="-441.2" font-family="arial" font-size="14.00">22 AWG (0.34 mm²)</text>
<polygon fill="none" stroke="black" points="602.5,-434 602.5,-458.5 654.75,-458.5 654.75,-434 602.5,-434"/>
<text text-anchor="start" x="606.5" y="-441.2" font-family="arial" font-size="14.00">0.31 m</text>
<text text-anchor="start" x="475.83" y="-418.7" font-family="arial" font-size="14.00"> </text>
<text text-anchor="start" x="445.46" y="-398.7" font-family="arial" font-size="14.00">X3:1:VCC</text>
<text text-anchor="start" x="515.25" y="-398.7" font-family="arial" font-size="14.00"> &#160;&#160;&#160;&#160;1:RD &#160;&#160;&#160;</text>
<text text-anchor="start" x="587.29" y="-398.7" font-family="arial" font-size="14.00">X4:1:VCC</text>
<polygon fill="#000000" stroke="none" points="442.5,-392 442.5,-394 654.75,-394 654.75,-392 442.5,-392"/>
<polygon fill="#ff0000" stroke="none" points="442.5,-390 442.5,-392 654.75,-392 654.75,-390 442.5,-390"/>
<polygon fill="#000000" stroke="none" points="442.5,-388 442.5,-390 654.75,-390 654.75,-388 442.5,-388"/>
<text text-anchor="start" x="445.08" y="-372.7" font-family="arial" font-size="14.00">X3:2:GND</text>
<text text-anchor="start" x="516" y="-372.7" font-family="arial" font-size="14.00"> &#160;&#160;&#160;&#160;2:BK &#160;&#160;&#160;</text>
<text text-anchor="start" x="586.92" y="-372.7" font-family="arial" font-size="14.00">X4:2:GND</text>
<polygon fill="#000000" stroke="none" points="442.5,-366 442.5,-368 654.75,-368 654.75,-366 442.5,-366"/>
<polygon fill="#000000" stroke="none" points="442.5,-364 442.5,-366 654.75,-366 654.75,-364 442.5,-364"/>
<polygon fill="#000000" stroke="none" points="442.5,-362 442.5,-364 654.75,-364 654.75,-362 442.5,-362"/>
<text text-anchor="start" x="475.83" y="-346.7" font-family="arial" font-size="14.00"> </text>
</g>
<!-- X3&#45;&#45;W3 -->
<g id="edge9" class="edge">
<title>X3:e&#45;&#45;W3:w</title>
<path fill="none" stroke="#000000" stroke-width="2" d="M298.5,-470.5C370.15,-472.58 366.85,-390.58 442.5,-388.5"/>
<path fill="none" stroke="#ff0000" stroke-width="2" d="M298.5,-472.5C372.15,-472.5 368.85,-390.5 442.5,-390.5"/>
<path fill="none" stroke="#000000" stroke-width="2" d="M298.5,-474.5C374.15,-472.42 370.85,-390.42 442.5,-392.5"/>
</g>
<!-- X3&#45;&#45;W3 -->
<g id="edge11" class="edge">
<title>X3:e&#45;&#45;W3:w</title>
<path fill="none" stroke="#000000" stroke-width="2" d="M298.5,-446.5C370.6,-448.6 366.41,-364.6 442.5,-362.5"/>
<path fill="none" stroke="#000000" stroke-width="2" d="M298.5,-448.5C372.59,-448.5 368.41,-364.5 442.5,-364.5"/>
<path fill="none" stroke="#000000" stroke-width="2" d="M298.5,-450.5C374.59,-448.4 370.4,-364.4 442.5,-366.5"/>
</g>
<!-- X4 -->
<g id="node4" class="node">
<title>X4</title>
<polygon fill="#ffffff" stroke="black" points="1097.25,-368 798.75,-368 798.75,-247 1097.25,-247 1097.25,-368"/>
<polygon fill="none" stroke="black" points="798.75,-343.5 798.75,-368 1097.25,-368 1097.25,-343.5 798.75,-343.5"/>
<text text-anchor="start" x="939" y="-350.7" font-family="arial" font-size="14.00">X4</text>
<polygon fill="none" stroke="black" points="798.75,-319 798.75,-343.5 1006.25,-343.5 1006.25,-319 798.75,-319"/>
<text text-anchor="start" x="802.75" y="-326.2" font-family="arial" font-size="14.00">3&#45;pin JST XH 2.5mm connector</text>
<polygon fill="none" stroke="black" points="1006.25,-319 1006.25,-343.5 1057.75,-343.5 1057.75,-319 1006.25,-319"/>
<text text-anchor="start" x="1010.25" y="-326.2" font-family="arial" font-size="14.00">female</text>
<polygon fill="none" stroke="black" points="1057.75,-319 1057.75,-343.5 1097.25,-343.5 1097.25,-319 1057.75,-319"/>
<text text-anchor="start" x="1061.75" y="-326.2" font-family="arial" font-size="14.00">3&#45;pin</text>
<polygon fill="none" stroke="black" points="798.75,-295 798.75,-319 936.5,-319 936.5,-295 798.75,-295"/>
<text text-anchor="start" x="863.5" y="-301.7" font-family="arial" font-size="14.00">1</text>
<polygon fill="none" stroke="black" points="936.5,-295 936.5,-319 1097.25,-319 1097.25,-295 936.5,-295"/>
<text text-anchor="start" x="1001.5" y="-301.7" font-family="arial" font-size="14.00">VCC</text>
<polygon fill="none" stroke="black" points="798.75,-271 798.75,-295 936.5,-295 936.5,-271 798.75,-271"/>
<text text-anchor="start" x="863.5" y="-277.7" font-family="arial" font-size="14.00">2</text>
<polygon fill="none" stroke="black" points="936.5,-271 936.5,-295 1097.25,-295 1097.25,-271 936.5,-271"/>
<text text-anchor="start" x="1001.12" y="-277.7" font-family="arial" font-size="14.00">GND</text>
<polygon fill="none" stroke="black" points="798.75,-247 798.75,-271 936.5,-271 936.5,-247 798.75,-247"/>
<text text-anchor="start" x="863.5" y="-253.7" font-family="arial" font-size="14.00">3</text>
<polygon fill="none" stroke="black" points="936.5,-247 936.5,-271 1097.25,-271 1097.25,-247 936.5,-247"/>
<text text-anchor="start" x="1001.5" y="-253.7" font-family="arial" font-size="14.00">NON</text>
</g>
<!-- X5 -->
<g id="node5" class="node">
<title>X5</title>
<polygon fill="#ffffff" stroke="black" points="298.5,-203 0,-203 0,-82 298.5,-82 298.5,-203"/>
<polygon fill="none" stroke="black" points="0,-178.5 0,-203 298.5,-203 298.5,-178.5 0,-178.5"/>
<text text-anchor="start" x="140.25" y="-185.7" font-family="arial" font-size="14.00">X5</text>
<polygon fill="none" stroke="black" points="0,-154 0,-178.5 207.5,-178.5 207.5,-154 0,-154"/>
<text text-anchor="start" x="4" y="-161.2" font-family="arial" font-size="14.00">3&#45;pin JST XH 2.5mm connector</text>
<polygon fill="none" stroke="black" points="207.5,-154 207.5,-178.5 259,-178.5 259,-154 207.5,-154"/>
<text text-anchor="start" x="211.5" y="-161.2" font-family="arial" font-size="14.00">female</text>
<polygon fill="none" stroke="black" points="259,-154 259,-178.5 298.5,-178.5 298.5,-154 259,-154"/>
<text text-anchor="start" x="263" y="-161.2" font-family="arial" font-size="14.00">3&#45;pin</text>
<polygon fill="none" stroke="black" points="0,-130 0,-154 160.75,-154 160.75,-130 0,-130"/>
<text text-anchor="start" x="65" y="-136.7" font-family="arial" font-size="14.00">VCC</text>
<polygon fill="none" stroke="black" points="160.75,-130 160.75,-154 298.5,-154 298.5,-130 160.75,-130"/>
<text text-anchor="start" x="225.5" y="-136.7" font-family="arial" font-size="14.00">1</text>
<polygon fill="none" stroke="black" points="0,-106 0,-130 160.75,-130 160.75,-106 0,-106"/>
<text text-anchor="start" x="64.62" y="-112.7" font-family="arial" font-size="14.00">GND</text>
<polygon fill="none" stroke="black" points="160.75,-106 160.75,-130 298.5,-130 298.5,-106 160.75,-106"/>
<text text-anchor="start" x="225.5" y="-112.7" font-family="arial" font-size="14.00">2</text>
<polygon fill="none" stroke="black" points="0,-82 0,-106 160.75,-106 160.75,-82 0,-82"/>
<text text-anchor="start" x="65" y="-88.7" font-family="arial" font-size="14.00">NON</text>
<polygon fill="none" stroke="black" points="160.75,-82 160.75,-106 298.5,-106 298.5,-82 160.75,-82"/>
<text text-anchor="start" x="225.5" y="-88.7" font-family="arial" font-size="14.00">3</text>
</g>
<!-- W4 -->
<g id="node10" class="node">
<title>W4</title>
<polygon fill="#ffffff" stroke="black" points="654.75,-318 442.5,-318 442.5,-177 654.75,-177 654.75,-318"/>
<polygon fill="none" stroke="black" points="442.5,-293.5 442.5,-318 654.75,-318 654.75,-293.5 442.5,-293.5"/>
<text text-anchor="start" x="537.38" y="-300.7" font-family="arial" font-size="14.00">W4</text>
<polygon fill="none" stroke="black" points="442.5,-269 442.5,-293.5 465.5,-293.5 465.5,-269 442.5,-269"/>
<text text-anchor="start" x="446.5" y="-276.2" font-family="arial" font-size="14.00">2x</text>
<polygon fill="none" stroke="black" points="465.5,-269 465.5,-293.5 602.5,-293.5 602.5,-269 465.5,-269"/>
<text text-anchor="start" x="469.5" y="-276.2" font-family="arial" font-size="14.00">22 AWG (0.34 mm²)</text>
<polygon fill="none" stroke="black" points="602.5,-269 602.5,-293.5 654.75,-293.5 654.75,-269 602.5,-269"/>
<text text-anchor="start" x="606.5" y="-276.2" font-family="arial" font-size="14.00">0.31 m</text>
<text text-anchor="start" x="475.83" y="-253.7" font-family="arial" font-size="14.00"> </text>
<text text-anchor="start" x="445.46" y="-233.7" font-family="arial" font-size="14.00">X5:1:VCC</text>
<text text-anchor="start" x="515.25" y="-233.7" font-family="arial" font-size="14.00"> &#160;&#160;&#160;&#160;1:RD &#160;&#160;&#160;</text>
<text text-anchor="start" x="587.29" y="-233.7" font-family="arial" font-size="14.00">X4:1:VCC</text>
<polygon fill="#000000" stroke="none" points="442.5,-227 442.5,-229 654.75,-229 654.75,-227 442.5,-227"/>
<polygon fill="#ff0000" stroke="none" points="442.5,-225 442.5,-227 654.75,-227 654.75,-225 442.5,-225"/>
<polygon fill="#000000" stroke="none" points="442.5,-223 442.5,-225 654.75,-225 654.75,-223 442.5,-223"/>
<text text-anchor="start" x="445.08" y="-207.7" font-family="arial" font-size="14.00">X5:2:GND</text>
<text text-anchor="start" x="516" y="-207.7" font-family="arial" font-size="14.00"> &#160;&#160;&#160;&#160;2:BK &#160;&#160;&#160;</text>
<text text-anchor="start" x="586.92" y="-207.7" font-family="arial" font-size="14.00">X4:2:GND</text>
<polygon fill="#000000" stroke="none" points="442.5,-201 442.5,-203 654.75,-203 654.75,-201 442.5,-201"/>
<polygon fill="#000000" stroke="none" points="442.5,-199 442.5,-201 654.75,-201 654.75,-199 442.5,-199"/>
<polygon fill="#000000" stroke="none" points="442.5,-197 442.5,-199 654.75,-199 654.75,-197 442.5,-197"/>
<text text-anchor="start" x="475.83" y="-181.7" font-family="arial" font-size="14.00"> </text>
</g>
<!-- X5&#45;&#45;W4 -->
<g id="edge13" class="edge">
<title>X5:e&#45;&#45;W4:w</title>
<path fill="none" stroke="#000000" stroke-width="2" d="M298.5,-139.5C374.59,-141.6 370.4,-225.6 442.5,-223.5"/>
<path fill="none" stroke="#ff0000" stroke-width="2" d="M298.5,-141.5C372.59,-141.5 368.41,-225.5 442.5,-225.5"/>
<path fill="none" stroke="#000000" stroke-width="2" d="M298.5,-143.5C370.6,-141.4 366.41,-225.4 442.5,-227.5"/>
</g>
<!-- X5&#45;&#45;W4 -->
<g id="edge15" class="edge">
<title>X5:e&#45;&#45;W4:w</title>
<path fill="none" stroke="#000000" stroke-width="2" d="M298.5,-115.5C374.15,-117.58 370.85,-199.58 442.5,-197.5"/>
<path fill="none" stroke="#000000" stroke-width="2" d="M298.5,-117.5C372.15,-117.5 368.85,-199.5 442.5,-199.5"/>
<path fill="none" stroke="#000000" stroke-width="2" d="M298.5,-119.5C370.15,-117.42 366.85,-199.42 442.5,-201.5"/>
</g>
<!-- W5 -->
<g id="node11" class="node">
<title>W5</title>
<polygon fill="#ffffff" stroke="black" points="654.75,-153 442.5,-153 442.5,-12 654.75,-12 654.75,-153"/>
<polygon fill="none" stroke="black" points="442.5,-128.5 442.5,-153 654.75,-153 654.75,-128.5 442.5,-128.5"/>
<text text-anchor="start" x="537.38" y="-135.7" font-family="arial" font-size="14.00">W5</text>
<polygon fill="none" stroke="black" points="442.5,-104 442.5,-128.5 465.5,-128.5 465.5,-104 442.5,-104"/>
<text text-anchor="start" x="446.5" y="-111.2" font-family="arial" font-size="14.00">2x</text>
<polygon fill="none" stroke="black" points="465.5,-104 465.5,-128.5 602.5,-128.5 602.5,-104 465.5,-104"/>
<text text-anchor="start" x="469.5" y="-111.2" font-family="arial" font-size="14.00">22 AWG (0.34 mm²)</text>
<polygon fill="none" stroke="black" points="602.5,-104 602.5,-128.5 654.75,-128.5 654.75,-104 602.5,-104"/>
<text text-anchor="start" x="606.5" y="-111.2" font-family="arial" font-size="14.00">0.36 m</text>
<text text-anchor="start" x="475.83" y="-88.7" font-family="arial" font-size="14.00"> </text>
<text text-anchor="start" x="445.46" y="-68.7" font-family="arial" font-size="14.00">X5:1:VCC</text>
<text text-anchor="start" x="515.25" y="-68.7" font-family="arial" font-size="14.00"> &#160;&#160;&#160;&#160;1:RD &#160;&#160;&#160;</text>
<text text-anchor="start" x="587.29" y="-68.7" font-family="arial" font-size="14.00">X6:1:VCC</text>
<polygon fill="#000000" stroke="none" points="442.5,-62 442.5,-64 654.75,-64 654.75,-62 442.5,-62"/>
<polygon fill="#ff0000" stroke="none" points="442.5,-60 442.5,-62 654.75,-62 654.75,-60 442.5,-60"/>
<polygon fill="#000000" stroke="none" points="442.5,-58 442.5,-60 654.75,-60 654.75,-58 442.5,-58"/>
<text text-anchor="start" x="445.08" y="-42.7" font-family="arial" font-size="14.00">X5:2:GND</text>
<text text-anchor="start" x="516" y="-42.7" font-family="arial" font-size="14.00"> &#160;&#160;&#160;&#160;2:BK &#160;&#160;&#160;</text>
<text text-anchor="start" x="586.92" y="-42.7" font-family="arial" font-size="14.00">X6:2:GND</text>
<polygon fill="#000000" stroke="none" points="442.5,-36 442.5,-38 654.75,-38 654.75,-36 442.5,-36"/>
<polygon fill="#000000" stroke="none" points="442.5,-34 442.5,-36 654.75,-36 654.75,-34 442.5,-34"/>
<polygon fill="#000000" stroke="none" points="442.5,-32 442.5,-34 654.75,-34 654.75,-32 442.5,-32"/>
<text text-anchor="start" x="475.83" y="-16.7" font-family="arial" font-size="14.00"> </text>
</g>
<!-- X5&#45;&#45;W5 -->
<g id="edge17" class="edge">
<title>X5:e&#45;&#45;W5:w</title>
<path fill="none" stroke="#000000" stroke-width="2" d="M298.5,-139.5C369.93,-141.57 367.07,-60.57 442.5,-58.5"/>
<path fill="none" stroke="#ff0000" stroke-width="2" d="M298.5,-141.5C371.93,-141.5 369.07,-60.5 442.5,-60.5"/>
<path fill="none" stroke="#000000" stroke-width="2" d="M298.5,-143.5C373.93,-141.43 371.07,-60.43 442.5,-62.5"/>
</g>
<!-- X5&#45;&#45;W5 -->
<g id="edge19" class="edge">
<title>X5:e&#45;&#45;W5:w</title>
<path fill="none" stroke="#000000" stroke-width="2" d="M298.5,-115.5C370.37,-117.59 366.63,-34.59 442.5,-32.5"/>
<path fill="none" stroke="#000000" stroke-width="2" d="M298.5,-117.5C372.37,-117.5 368.63,-34.5 442.5,-34.5"/>
<path fill="none" stroke="#000000" stroke-width="2" d="M298.5,-119.5C374.37,-117.41 370.63,-34.41 442.5,-36.5"/>
</g>
<!-- X6 -->
<g id="node6" class="node">
<title>X6</title>
<polygon fill="#ffffff" stroke="black" points="1097.25,-121 798.75,-121 798.75,0 1097.25,0 1097.25,-121"/>
<polygon fill="none" stroke="black" points="798.75,-96.5 798.75,-121 1097.25,-121 1097.25,-96.5 798.75,-96.5"/>
<text text-anchor="start" x="939" y="-103.7" font-family="arial" font-size="14.00">X6</text>
<polygon fill="none" stroke="black" points="798.75,-72 798.75,-96.5 1006.25,-96.5 1006.25,-72 798.75,-72"/>
<text text-anchor="start" x="802.75" y="-79.2" font-family="arial" font-size="14.00">3&#45;pin JST XH 2.5mm connector</text>
<polygon fill="none" stroke="black" points="1006.25,-72 1006.25,-96.5 1057.75,-96.5 1057.75,-72 1006.25,-72"/>
<text text-anchor="start" x="1010.25" y="-79.2" font-family="arial" font-size="14.00">female</text>
<polygon fill="none" stroke="black" points="1057.75,-72 1057.75,-96.5 1097.25,-96.5 1097.25,-72 1057.75,-72"/>
<text text-anchor="start" x="1061.75" y="-79.2" font-family="arial" font-size="14.00">3&#45;pin</text>
<polygon fill="none" stroke="black" points="798.75,-48 798.75,-72 936.5,-72 936.5,-48 798.75,-48"/>
<text text-anchor="start" x="863.5" y="-54.7" font-family="arial" font-size="14.00">1</text>
<polygon fill="none" stroke="black" points="936.5,-48 936.5,-72 1097.25,-72 1097.25,-48 936.5,-48"/>
<text text-anchor="start" x="1001.5" y="-54.7" font-family="arial" font-size="14.00">VCC</text>
<polygon fill="none" stroke="black" points="798.75,-24 798.75,-48 936.5,-48 936.5,-24 798.75,-24"/>
<text text-anchor="start" x="863.5" y="-30.7" font-family="arial" font-size="14.00">2</text>
<polygon fill="none" stroke="black" points="936.5,-24 936.5,-48 1097.25,-48 1097.25,-24 936.5,-24"/>
<text text-anchor="start" x="1001.12" y="-30.7" font-family="arial" font-size="14.00">GND</text>
<polygon fill="none" stroke="black" points="798.75,0 798.75,-24 936.5,-24 936.5,0 798.75,0"/>
<text text-anchor="start" x="863.5" y="-6.7" font-family="arial" font-size="14.00">3</text>
<polygon fill="none" stroke="black" points="936.5,0 936.5,-24 1097.25,-24 1097.25,0 936.5,0"/>
<text text-anchor="start" x="1001.5" y="-6.7" font-family="arial" font-size="14.00">NON</text>
</g>
<!-- W1&#45;&#45;X2 -->
<g id="edge2" class="edge">
<title>W1:e&#45;&#45;X2:w</title>
<path fill="none" stroke="#000000" stroke-width="2" d="M654.75,-718.5C726.85,-720.6 722.66,-636.6 798.75,-634.5"/>
<path fill="none" stroke="#ff0000" stroke-width="2" d="M654.75,-720.5C728.84,-720.5 724.66,-636.5 798.75,-636.5"/>
<path fill="none" stroke="#000000" stroke-width="2" d="M654.75,-722.5C730.84,-720.4 726.65,-636.4 798.75,-638.5"/>
</g>
<!-- W1&#45;&#45;X2 -->
<g id="edge4" class="edge">
<title>W1:e&#45;&#45;X2:w</title>
<path fill="none" stroke="#000000" stroke-width="2" d="M654.75,-692.5C726.4,-694.58 723.1,-612.58 798.75,-610.5"/>
<path fill="none" stroke="#000000" stroke-width="2" d="M654.75,-694.5C728.4,-694.5 725.1,-612.5 798.75,-612.5"/>
<path fill="none" stroke="#000000" stroke-width="2" d="M654.75,-696.5C730.4,-694.42 727.1,-612.42 798.75,-614.5"/>
</g>
<!-- W2&#45;&#45;X2 -->
<g id="edge6" class="edge">
<title>W2:e&#45;&#45;X2:w</title>
<path fill="none" stroke="#000000" stroke-width="2" d="M654.75,-553.5C730.18,-555.57 727.32,-636.57 798.75,-634.5"/>
<path fill="none" stroke="#ff0000" stroke-width="2" d="M654.75,-555.5C728.18,-555.5 725.32,-636.5 798.75,-636.5"/>
<path fill="none" stroke="#000000" stroke-width="2" d="M654.75,-557.5C726.18,-555.43 723.32,-636.43 798.75,-638.5"/>
</g>
<!-- W2&#45;&#45;X2 -->
<g id="edge8" class="edge">
<title>W2:e&#45;&#45;X2:w</title>
<path fill="none" stroke="#000000" stroke-width="2" d="M654.75,-527.5C730.62,-529.59 726.88,-612.59 798.75,-610.5"/>
<path fill="none" stroke="#000000" stroke-width="2" d="M654.75,-529.5C728.62,-529.5 724.88,-612.5 798.75,-612.5"/>
<path fill="none" stroke="#000000" stroke-width="2" d="M654.75,-531.5C726.62,-529.41 722.88,-612.41 798.75,-614.5"/>
</g>
<!-- W3&#45;&#45;X4 -->
<g id="edge10" class="edge">
<title>W3:e&#45;&#45;X4:w</title>
<path fill="none" stroke="#000000" stroke-width="2" d="M654.75,-388.5C726.85,-390.6 722.66,-306.6 798.75,-304.5"/>
<path fill="none" stroke="#ff0000" stroke-width="2" d="M654.75,-390.5C728.84,-390.5 724.66,-306.5 798.75,-306.5"/>
<path fill="none" stroke="#000000" stroke-width="2" d="M654.75,-392.5C730.84,-390.4 726.65,-306.4 798.75,-308.5"/>
</g>
<!-- W3&#45;&#45;X4 -->
<g id="edge12" class="edge">
<title>W3:e&#45;&#45;X4:w</title>
<path fill="none" stroke="#000000" stroke-width="2" d="M654.75,-362.5C726.4,-364.58 723.1,-282.58 798.75,-280.5"/>
<path fill="none" stroke="#000000" stroke-width="2" d="M654.75,-364.5C728.4,-364.5 725.1,-282.5 798.75,-282.5"/>
<path fill="none" stroke="#000000" stroke-width="2" d="M654.75,-366.5C730.4,-364.42 727.1,-282.42 798.75,-284.5"/>
</g>
<!-- W4&#45;&#45;X4 -->
<g id="edge14" class="edge">
<title>W4:e&#45;&#45;X4:w</title>
<path fill="none" stroke="#000000" stroke-width="2" d="M654.75,-223.5C730.18,-225.57 727.32,-306.57 798.75,-304.5"/>
<path fill="none" stroke="#ff0000" stroke-width="2" d="M654.75,-225.5C728.18,-225.5 725.32,-306.5 798.75,-306.5"/>
<path fill="none" stroke="#000000" stroke-width="2" d="M654.75,-227.5C726.18,-225.43 723.32,-306.43 798.75,-308.5"/>
</g>
<!-- W4&#45;&#45;X4 -->
<g id="edge16" class="edge">
<title>W4:e&#45;&#45;X4:w</title>
<path fill="none" stroke="#000000" stroke-width="2" d="M654.75,-197.5C730.62,-199.59 726.88,-282.59 798.75,-280.5"/>
<path fill="none" stroke="#000000" stroke-width="2" d="M654.75,-199.5C728.62,-199.5 724.88,-282.5 798.75,-282.5"/>
<path fill="none" stroke="#000000" stroke-width="2" d="M654.75,-201.5C726.62,-199.41 722.88,-282.41 798.75,-284.5"/>
</g>
<!-- W5&#45;&#45;X6 -->
<g id="edge18" class="edge">
<title>W5:e&#45;&#45;X6:w</title>
<path fill="none" stroke="#000000" stroke-width="2" d="M654.75,-58.5C718.63,-58.5 734.62,-57.5 798.75,-57.5"/>
<path fill="none" stroke="#ff0000" stroke-width="2" d="M654.75,-60.5C718.75,-60.5 734.75,-59.5 798.75,-59.5"/>
<path fill="none" stroke="#000000" stroke-width="2" d="M654.75,-62.5C718.88,-62.5 734.87,-61.5 798.75,-61.5"/>
</g>
<!-- W5&#45;&#45;X6 -->
<g id="edge20" class="edge">
<title>W5:e&#45;&#45;X6:w</title>
<path fill="none" stroke="#000000" stroke-width="2" d="M654.75,-32.5C718.88,-32.5 734.87,-33.5 798.75,-33.5"/>
<path fill="none" stroke="#000000" stroke-width="2" d="M654.75,-34.5C718.75,-34.5 734.75,-35.5 798.75,-35.5"/>
<path fill="none" stroke="#000000" stroke-width="2" d="M654.75,-36.5C718.63,-36.5 734.62,-37.5 798.75,-37.5"/>
</g>
</g>
</svg>
